<?xml version="1.0" standalone="no"?>
<!DOCTYPE svg PUBLIC "-//W3C//DTD SVG 20010904//EN"
 "http://www.w3.org/TR/2001/REC-SVG-20010904/DTD/svg10.dtd">
<svg version="1.0" xmlns="http://www.w3.org/2000/svg"
 width="512.000000pt" height="512.000000pt" viewBox="0 0 512.000000 512.000000"
 preserveAspectRatio="xMidYMid meet">
<metadata>
Created by potrace 1.14, written by Peter Selinger 2001-2017
</metadata>
<g transform="translate(0.000000,512.000000) scale(0.100000,-0.100000)"
fill="#000000" stroke="none">
<path d="M3178 5053 c6 -2 18 -2 25 0 6 3 1 5 -13 5 -14 0 -19 -2 -12 -5z"/>
<path d="M3213 5021 c-40 -21 -88 -50 -106 -64 -57 -43 -152 -140 -175 -177
-11 -20 -32 -46 -46 -59 -21 -20 -26 -21 -26 -8 0 9 -4 17 -9 17 -5 0 -12 9
-16 19 -3 10 -15 21 -26 24 -12 3 -18 10 -14 16 3 6 1 11 -4 11 -15 0 -14 33
1 48 17 17 -4 15 -30 -4 -20 -14 -24 -14 -38 0 -8 9 -19 16 -24 16 -4 0 -10
10 -13 21 -4 15 -11 20 -22 15 -11 -4 -14 -2 -9 6 5 8 2 9 -10 5 -11 -4 -15
-3 -11 4 4 5 12 8 18 6 7 -2 17 2 22 10 6 7 51 31 100 53 50 22 85 40 79 40
-59 1 -295 -113 -275 -133 36 -36 -11 -89 -110 -126 -103 -38 -155 -75 -287
-205 -98 -96 -119 -123 -158 -201 -25 -50 -49 -108 -54 -128 -7 -32 -6 -37 11
-38 10 -1 24 -3 29 -4 6 -1 15 -3 20 -4 6 0 10 -11 10 -23 0 -21 1 -21 13 -4
13 17 15 17 45 2 30 -15 32 -19 27 -59 -5 -42 -5 -42 7 -9 12 36 29 36 81 0
22 -16 27 -27 28 -66 1 -30 4 -37 6 -19 4 24 9 27 46 28 l42 2 -37 10 c-44 12
-46 22 -19 92 21 56 83 167 89 160 2 -2 -1 -27 -7 -55 -12 -55 -15 -199 -5
-248 6 -27 9 -30 25 -21 11 5 19 16 19 24 0 8 3 14 8 14 18 -3 31 3 58 26 16
14 32 25 36 25 4 0 13 6 20 13 7 6 24 18 38 25 54 28 60 38 75 124 22 130 31
141 27 33 l-4 -96 53 33 c79 50 219 120 220 111 1 -4 0 -21 0 -38 -1 -16 3
-37 9 -45 8 -13 10 -13 10 2 0 22 41 128 49 126 3 -1 40 14 81 34 65 30 72 36
52 42 -19 6 -21 10 -11 22 13 16 -4 44 -27 44 -15 0 -18 18 -15 85 1 37 0 38
-11 17 -7 -14 -17 -21 -26 -17 -9 3 -19 0 -24 -7 -9 -15 -1 57 14 116 16 64 0
53 -18 -13 -17 -59 -26 -72 -39 -51 -3 6 -15 10 -26 10 -11 0 -17 5 -14 10 8
13 -8 13 -22 -1 -7 -7 -10 -3 -8 15 2 14 -1 26 -6 26 -20 0 39 85 106 155 70
72 162 138 263 189 28 14 52 29 52 31 0 14 -43 0 -107 -34z m-154 -485 c0 -14
-2 -16 -6 -6 -3 8 -10 21 -16 28 -7 9 -6 11 7 6 9 -3 16 -16 15 -28z"/>
<path d="M2945 4980 c-3 -6 1 -7 9 -4 18 7 21 14 7 14 -6 0 -13 -4 -16 -10z"/>
<path d="M2893 4944 l-28 -25 33 22 c17 13 32 24 32 26 0 8 -11 1 -37 -23z"/>
<path d="M3046 4765 c-9 -26 -7 -32 5 -12 6 10 9 21 6 23 -2 3 -7 -2 -11 -11z"/>
<path d="M3090 4509 c0 -5 5 -7 10 -4 6 3 10 8 10 11 0 2 -4 4 -10 4 -5 0 -10
-5 -10 -11z"/>
<path d="M1993 4383 c-57 -52 -160 -216 -213 -341 -45 -106 -69 -213 -74 -327
-5 -102 -4 -100 15 39 22 164 92 329 220 521 91 136 91 135 87 135 -2 0 -18
-12 -35 -27z"/>
<path d="M4497 4308 c-2 -18 -1 -42 4 -53 6 -17 8 -17 8 -3 1 27 31 10 31 -18
0 -22 -44 -63 -55 -52 -3 2 -8 26 -11 52 -5 35 -3 50 7 56 11 7 10 10 -4 16
-21 8 -57 -21 -57 -47 0 -10 -25 -53 -56 -96 -57 -79 -139 -231 -130 -240 3
-3 -4 -15 -15 -27 -12 -12 -19 -30 -16 -43 2 -12 1 -20 -3 -18 -10 6 -32 -73
-24 -87 4 -6 3 -8 -4 -4 -20 12 -88 -319 -70 -341 6 -7 51 -36 102 -65 99 -56
137 -82 137 -95 1 -4 3 -10 6 -13 4 -3 3 1 -2 9 -4 7 -4 12 1 10 5 -2 26 -11
47 -19 37 -14 49 -30 23 -30 -8 0 -17 6 -19 13 -4 9 -6 9 -6 -1 -1 -7 10 -17
23 -22 27 -10 40 -55 23 -85 -10 -18 -11 -18 -15 -2 -6 28 -21 20 -19 -10 1
-16 -3 -28 -10 -28 -6 0 -15 -4 -20 -9 -5 -5 -3 -6 5 -2 7 4 12 1 12 -9 0 -9
-4 -14 -8 -11 -5 3 -9 -1 -9 -9 0 -8 1 -15 3 -15 1 0 19 23 40 52 l39 52 10
-37 c7 -26 14 -34 23 -28 10 6 12 24 7 69 -4 46 -2 69 10 92 9 18 25 59 36 92
l19 61 -24 101 c-16 67 -26 145 -30 231 -3 72 -15 191 -26 265 -12 74 -23 154
-27 177 l-6 42 35 -5 c30 -5 38 -2 57 22 12 15 20 33 17 40 -3 7 5 15 17 18
49 13 74 5 127 -40 56 -47 96 -71 179 -103 46 -19 50 -19 63 -4 7 9 8 14 2 10
-6 -3 -11 0 -11 7 0 8 7 12 15 8 9 -3 13 -1 9 5 -9 14 -171 83 -195 83 -11 0
-36 19 -56 45 -43 52 -92 71 -147 55 -27 -8 -36 -7 -45 5 -10 13 -12 10 -17
-17z m-135 -465 l-5 -162 -60 -73 c-34 -40 -50 -64 -37 -53 12 11 40 42 61 68
38 48 39 48 39 20 0 -19 -15 -46 -46 -83 l-46 -55 46 47 c25 26 46 42 46 37 0
-5 -14 -38 -31 -72 -34 -67 -30 -70 8 -10 l24 38 -6 -70 c-3 -38 -6 -80 -6
-92 l-1 -22 -38 22 c-21 12 -36 26 -33 31 4 5 1 6 -5 2 -7 -4 -33 8 -58 26
l-46 33 6 53 c6 51 57 194 98 275 11 22 17 45 14 53 -3 8 0 13 6 11 6 -1 24
31 41 71 16 40 31 71 32 70 1 -2 0 -76 -3 -165z m-161 -166 c-10 -9 -11 -8 -5
6 3 10 9 15 12 12 3 -3 0 -11 -7 -18z m239 -123 c0 -87 -4 -133 -10 -129 -17
11 -11 265 6 265 2 0 4 -61 4 -136z m35 77 c3 -5 2 -12 -3 -15 -5 -3 -9 1 -9
9 0 17 3 19 12 6z m-8 -78 c-3 -10 -5 -4 -5 12 0 17 2 24 5 18 2 -7 2 -21 0
-30z m-4 -53 c-3 -11 -7 -20 -9 -20 -2 0 -4 9 -4 20 0 11 4 20 9 20 5 0 7 -9
4 -20z m5 -55 c-3 -3 -9 2 -12 12 -6 14 -5 15 5 6 7 -7 10 -15 7 -18z m9 -47
c-3 -8 -6 -5 -6 6 -1 11 2 17 5 13 3 -3 4 -12 1 -19z"/>
<path d="M3840 4235 c0 -49 3 -86 6 -82 7 7 6 158 -1 165 -3 3 -5 -34 -5 -83z"/>
<path d="M2983 4192 c-60 -4 -56 -27 7 -39 l50 -10 -7 26 c-3 14 -6 26 -7 26
-1 0 -20 -1 -43 -3z"/>
<path d="M3842 4006 c-3 -169 -29 -315 -103 -565 -24 -80 -24 -79 9 -73 34 6
73 31 67 43 -3 4 3 57 15 116 27 143 50 349 50 445 0 63 -3 76 -14 72 -11 -4
-16 4 -19 33 -2 21 -4 -11 -5 -71z"/>
<path d="M4960 4075 c14 -8 30 -14 35 -14 6 0 -1 6 -15 14 -14 8 -29 14 -35
14 -5 0 1 -6 15 -14z"/>
<path d="M5040 4086 c0 -2 14 -14 30 -26 17 -12 30 -19 30 -16 0 2 -13 14 -30
26 -16 12 -30 19 -30 16z"/>
<path d="M5010 4056 c0 -2 7 -7 16 -10 8 -3 12 -2 9 4 -6 10 -25 14 -25 6z"/>
<path d="M2111 4034 c0 -11 3 -14 6 -6 3 7 2 16 -1 19 -3 4 -6 -2 -5 -13z"/>
<path d="M4805 4021 c25 -82 73 -129 193 -190 44 -22 53 -38 27 -47 -19 -8
-79 28 -132 80 -24 22 -43 37 -43 33 0 -35 88 -130 149 -161 27 -15 34 -15 59
-2 48 25 62 51 62 114 l0 57 -20 -32 c-11 -18 -23 -33 -26 -33 -26 0 -153 89
-228 159 -40 38 -47 42 -41 22z"/>
<path d="M5077 4019 c7 -7 15 -10 18 -7 3 3 -2 9 -12 12 -14 6 -15 5 -6 -5z"/>
<path d="M651 3915 c0 -5 6 -21 14 -35 8 -14 14 -20 14 -15 0 6 -6 21 -14 35
-8 14 -14 21 -14 15z"/>
<path d="M2003 3876 c-7 -31 -8 -58 -2 -73 13 -35 11 -123 -4 -174 -8 -24 -36
-78 -63 -119 -57 -88 -94 -173 -93 -215 0 -28 1 -27 14 12 17 55 54 117 104
173 l40 45 -9 -35 c-5 -19 -20 -66 -34 -105 -17 -47 -26 -91 -26 -133 0 -62 0
-62 26 -56 25 6 26 6 14 -17 -7 -13 -24 -40 -38 -59 -15 -19 -19 -29 -10 -22
25 20 30 -3 7 -32 -30 -38 -18 -42 35 -11 38 22 46 24 46 11 0 -9 8 -16 20
-16 18 0 18 -3 7 -27 -6 -16 -27 -55 -46 -88 -56 -96 -50 -108 19 -40 33 33
60 56 60 53 0 -4 -9 -45 -21 -93 -11 -48 -19 -98 -17 -112 l3 -24 40 36 c60
54 75 61 75 32 0 -63 -60 -203 -116 -270 -13 -16 -21 -34 -17 -40 3 -7 3 -9
-2 -5 -4 4 -31 -12 -59 -35 -28 -24 -63 -52 -78 -62 -26 -16 -28 -16 -28 0 0
26 30 135 46 170 l15 30 -23 -29 c-36 -47 -98 -166 -98 -190 0 -12 -5 -27 -11
-33 -7 -7 8 -12 53 -17 37 -5 64 -4 66 2 10 30 29 44 47 35 15 -9 18 -25 20
-104 1 -91 28 -219 46 -219 17 0 19 21 4 76 -8 32 -15 94 -15 137 0 74 3 86
49 181 26 55 56 125 65 154 10 28 22 52 26 52 26 0 89 -294 77 -356 -3 -19 0
-24 18 -24 16 0 28 13 49 58 40 84 57 156 40 168 -17 12 -168 439 -184 521 -7
36 -10 107 -8 175 4 93 10 129 36 206 18 51 38 139 46 195 8 56 14 92 15 80 2
-41 18 -33 24 13 5 49 30 84 58 84 17 0 17 -3 -4 -42 -23 -45 -29 -125 -14
-180 7 -25 9 -26 37 -16 50 17 80 72 80 143 0 70 -23 116 -69 140 -40 20 -63
19 -95 -6 -15 -12 -30 -18 -33 -15 -4 3 -19 -5 -34 -20 l-27 -26 -11 54 c-6
29 -13 62 -15 73 -2 11 -5 -7 -6 -40 l-2 -60 -14 35 c-13 34 -14 32 -8 -40 3
-41 8 -84 10 -95 5 -20 5 -20 -10 -1 -25 31 -54 119 -69 204 l-13 77 -11 -49z
m396 -239 c-2 -66 -40 -127 -79 -127 -18 0 -20 6 -19 53 0 41 2 47 9 30 12
-28 20 -30 13 -3 -4 14 0 20 11 20 9 0 16 5 16 11 0 5 -4 7 -10 4 -5 -3 -10 1
-10 9 0 9 2 16 4 16 2 0 12 3 21 6 14 6 15 2 9 -31 -5 -28 -4 -36 5 -30 7 4
12 21 11 39 -3 43 -1 48 10 41 6 -3 10 -21 9 -38z"/>
<path d="M2954 3896 l6 -23 -63 13 c-75 16 -80 16 -73 5 4 -5 -2 -7 -11 -5
-10 3 -33 -7 -52 -21 -39 -28 -34 -34 7 -7 l27 17 -21 -30 c-12 -16 -27 -41
-34 -55 -12 -24 -11 -24 20 5 l32 30 -17 -34 -17 -35 42 34 43 34 -18 -29 -19
-30 30 26 c16 15 38 31 49 36 29 15 90 24 109 17 14 -5 13 -10 -9 -36 -13 -16
-30 -48 -36 -70 -12 -45 -9 -211 4 -224 4 -4 39 -3 77 3 70 11 91 22 190 101
15 12 31 22 34 22 4 0 11 -10 16 -22 7 -19 9 -14 9 25 1 50 -19 109 -46 139
-15 16 -17 17 -28 1 -10 -13 -11 -11 -7 15 6 43 -19 43 -41 0 l-16 -33 0 48
-1 48 -55 25 c-67 29 -90 31 -81 7 6 -14 2 -12 -17 5 -30 28 -41 28 -33 -2z
m46 -212 c0 -49 15 -52 25 -4 4 16 10 32 14 34 4 3 27 -5 51 -16 25 -11 39
-22 33 -25 -7 -3 -13 -14 -13 -26 0 -21 1 -21 20 3 14 19 22 22 31 13 28 -28
-22 -107 -79 -123 -66 -18 -101 -13 -112 16 -21 53 -7 174 20 174 5 0 10 -21
10 -46z m175 17 c3 -5 1 -13 -5 -16 -15 -9 -43 3 -35 15 8 13 32 13 40 1z"/>
<path d="M3055 3669 c-10 -15 3 -25 16 -12 7 7 7 13 1 17 -6 3 -14 1 -17 -5z"/>
<path d="M4046 3438 c18 -20 38 -54 45 -75 18 -49 17 -177 0 -227 -19 -55 -89
-126 -180 -184 -105 -68 -129 -74 -211 -61 -39 7 -73 8 -82 3 -8 -5 -34 -31
-59 -59 -24 -27 -36 -44 -26 -36 9 7 17 11 17 8 0 -4 -23 -52 -52 -108 -44
-88 -52 -112 -56 -175 -2 -40 -1 -98 3 -130 l7 -58 46 52 c26 28 66 63 90 78
23 14 42 30 42 35 0 4 9 11 20 14 23 7 78 55 63 55 -5 0 -31 -14 -57 -30 -26
-17 -52 -28 -57 -24 -5 3 -8 2 -7 -3 2 -5 -15 -25 -37 -44 -22 -18 -45 -41
-52 -49 -6 -8 -18 -24 -27 -35 -15 -19 -15 -19 -9 5 3 14 10 31 16 38 5 6 7
12 3 12 -10 0 22 59 61 113 19 26 29 47 23 47 -11 0 -98 -65 -112 -85 -14 -18
-8 30 8 78 9 26 20 44 25 41 5 -3 9 2 9 10 0 8 6 21 13 28 18 20 57 76 57 83
0 15 54 63 70 62 10 -1 16 -5 14 -9 -3 -4 4 -28 16 -52 11 -25 20 -50 20 -55
0 -15 37 -51 44 -43 3 3 6 -2 6 -10 0 -43 42 -1 131 131 58 87 110 155 135
173 55 41 64 53 25 33 -52 -26 -28 -1 47 49 37 24 77 55 87 67 18 21 17 20
-15 -3 -19 -14 -48 -34 -64 -44 l-30 -19 27 46 c15 25 31 70 37 100 8 42 19
63 50 94 22 22 40 44 40 48 0 4 -16 -11 -36 -33 -20 -22 -40 -40 -44 -40 -4 0
-10 20 -12 45 -7 57 -53 152 -81 167 -17 9 -15 4 9 -24z"/>
<path d="M3680 3420 c-8 -5 -11 -10 -5 -10 5 0 4 -5 -3 -12 -7 -7 -12 -20 -12
-31 0 -10 -4 -16 -9 -13 -5 3 -11 0 -14 -7 -3 -8 1 -14 8 -14 8 0 23 22 34 49
11 26 19 48 18 48 -1 0 -9 -5 -17 -10z"/>
<path d="M3885 3360 c-3 -5 -1 -10 4 -10 6 0 11 5 11 10 0 6 -2 10 -4 10 -3 0
-8 -4 -11 -10z"/>
<path d="M3592 3264 c-18 -31 -29 -61 -25 -66 3 -6 1 -8 -5 -5 -5 4 -21 -12
-35 -36 -14 -24 -58 -86 -99 -138 -48 -62 -80 -115 -94 -156 -12 -35 -20 -63
-18 -63 1 0 39 50 83 110 47 66 78 117 74 126 -6 17 74 144 92 144 17 0 76
113 66 128 -4 7 -19 -8 -39 -44z"/>
<path d="M4229 3163 c-13 -16 -12 -17 4 -4 16 13 21 21 13 21 -2 0 -10 -8 -17
-17z"/>
<path d="M3774 3118 l-19 -23 23 19 c12 11 22 21 22 23 0 8 -8 2 -26 -19z"/>
<path d="M4280 3130 c-9 -6 -10 -10 -3 -10 6 0 15 5 18 10 8 12 4 12 -15 0z"/>
<path d="M4330 3106 c0 -2 7 -7 16 -10 8 -3 12 -2 9 4 -6 10 -25 14 -25 6z"/>
<path d="M4256 3092 c-7 -11 6 -26 24 -30 12 -2 11 1 -2 11 -10 8 -15 17 -11
20 3 4 4 7 0 7 -3 0 -8 -4 -11 -8z"/>
<path d="M3729 3063 c-13 -16 -12 -17 4 -4 16 13 21 21 13 21 -2 0 -10 -8 -17
-17z"/>
<path d="M2304 2994 c4 -36 14 -84 23 -106 l16 -41 13 42 c16 54 38 79 93 103
31 14 46 17 54 9 6 -6 15 -11 21 -11 5 0 -5 11 -23 24 -35 26 -108 46 -168 46
l-36 0 7 -66z"/>
<path d="M4344 3013 c4 -39 -11 -57 -33 -41 -14 12 -14 11 -2 -4 12 -16 9 -22
-10 -20 -3 1 -6 -6 -6 -14 0 -9 15 -1 39 23 38 37 47 50 27 37 -7 -4 -9 0 -5
14 4 11 2 23 -3 26 -6 4 -9 -5 -7 -21z"/>
<path d="M2558 2992 c9 -10 19 -17 21 -16 6 5 -20 34 -30 34 -5 0 -1 -8 9 -18z"/>
<path d="M4259 2994 c-16 -20 7 -25 25 -5 14 15 14 18 1 18 -8 0 -20 -6 -26
-13z"/>
<path d="M4226 2952 c-2 -4 -2 -13 2 -18 12 -17 41 -24 48 -11 4 7 4 9 -1 5
-11 -10 -47 11 -40 23 4 5 4 9 1 9 -3 0 -7 -4 -10 -8z"/>
<path d="M625 2909 c-16 -7 -13 -8 12 -5 25 4 36 1 48 -17 8 -12 15 -17 15
-11 0 13 -33 44 -46 43 -5 0 -18 -5 -29 -10z"/>
<path d="M4210 2910 c8 -5 10 -10 4 -10 -6 0 -11 -7 -11 -16 0 -14 2 -14 14 2
9 12 13 13 13 4 0 -7 3 -10 6 -7 9 8 -15 37 -30 37 -6 0 -4 -5 4 -10z"/>
<path d="M4501 2910 c-2 -28 40 -163 81 -264 48 -117 76 -168 89 -160 5 3 6
-1 3 -9 -6 -18 21 -41 37 -31 7 4 9 3 6 -3 -9 -14 68 -33 130 -33 l48 0 -55
26 c-30 14 -63 33 -74 42 -14 13 -20 14 -23 5 -3 -7 -9 -13 -15 -13 -7 0 -7 5
1 13 8 10 3 20 -20 43 -69 66 -139 191 -184 329 -13 39 -23 63 -24 55z m302
-473 c3 -8 -1 -14 -8 -14 -7 0 -11 6 -8 14 3 7 6 13 8 13 2 0 5 -6 8 -13z"/>
<path d="M578 2893 c7 -3 16 -2 19 1 4 3 -2 6 -13 5 -11 0 -14 -3 -6 -6z"/>
<path d="M595 2850 c19 -8 73 -14 64 -6 -2 2 -22 6 -44 9 -28 5 -34 4 -20 -3z"/>
<path d="M678 2833 c6 -2 18 -2 25 0 6 3 1 5 -13 5 -14 0 -19 -2 -12 -5z"/>
<path d="M1402 2625 c-46 -45 -46 -45 -17 -39 40 9 112 51 119 69 4 11 -2 15
-25 15 -22 0 -42 -12 -77 -45z"/>
<path d="M2894 2350 c-33 -15 -92 -37 -130 -50 -78 -26 -91 -35 -117 -82 -10
-18 -12 -26 -5 -18 7 8 51 30 98 49 80 32 198 89 228 109 11 8 11 10 0 14 -7
3 -41 -7 -74 -22z"/>
<path d="M2026 2275 c-6 -30 10 -203 19 -214 2 -1 13 5 24 16 14 13 17 23 11
33 -5 8 -10 54 -10 101 0 70 -3 88 -16 93 -9 3 -17 6 -19 6 -1 0 -6 -16 -9
-35z"/>
<path d="M2555 2225 c-33 -19 -71 -44 -85 -55 -22 -18 -18 -17 38 5 35 14 66
24 70 21 4 -2 17 11 30 30 12 19 19 34 15 34 -5 0 -35 -16 -68 -35z"/>
<path d="M5110 2178 c0 -21 -96 -213 -131 -264 -18 -26 -54 -72 -81 -101 -26
-29 -48 -57 -48 -62 0 -5 -16 -31 -36 -57 l-36 -47 31 23 c57 40 158 147 235
250 l76 101 0 84 c0 47 -2 85 -5 85 -3 0 -5 -6 -5 -12z"/>
<path d="M2742 2130 c0 -14 2 -19 5 -12 2 6 2 18 0 25 -3 6 -5 1 -5 -13z"/>
<path d="M1916 1953 c-16 -43 -31 -84 -34 -90 -2 -8 4 -13 14 -13 13 0 28 18
47 60 25 53 26 62 15 90 l-13 31 -29 -78z"/>
<path d="M310 1974 c-76 -32 -220 -124 -193 -124 6 0 30 7 54 15 24 9 50 14
59 13 9 -2 37 13 61 33 24 20 63 48 87 64 73 48 49 48 -68 -1z"/>
<path d="M2531 1914 c0 -11 3 -14 6 -6 3 7 2 16 -1 19 -3 4 -6 -2 -5 -13z"/>
<path d="M5112 1921 c-4 -23 -81 -183 -127 -261 -24 -41 -69 -103 -100 -138
-30 -35 -55 -66 -55 -68 0 -3 14 5 32 17 58 42 172 164 216 231 l43 66 -4 83
c-1 46 -4 78 -5 70z"/>
<path d="M2496 1764 c-8 -22 -9 -21 24 -27 19 -4 60 -37 120 -95 79 -79 92
-88 107 -77 16 12 8 23 -83 114 -84 84 -106 101 -131 101 -19 0 -33 -6 -37
-16z"/>
<path d="M2322 1729 c-12 -18 -11 -20 5 -17 10 2 19 11 21 21 5 23 -10 21 -26
-4z"/>
<path d="M1806 1668 c-25 -70 -83 -259 -96 -314 -6 -28 -22 -62 -36 -77 -13
-14 -24 -29 -24 -32 0 -3 -22 -38 -49 -78 -60 -90 -151 -247 -151 -263 0 -6
10 -16 23 -22 20 -10 19 -10 -10 -5 -28 5 -33 2 -39 -21 -3 -14 -11 -26 -18
-26 -6 0 -83 -5 -171 -10 -210 -14 -395 -40 -528 -77 -29 -8 -157 -194 -157
-228 0 -3 21 -5 46 -5 37 0 60 8 108 39 83 52 162 91 170 84 3 -4 6 -2 6 4 0
12 89 50 234 99 84 29 114 34 189 34 81 0 88 -2 82 -17 -5 -10 -23 -68 -41
-130 -51 -172 -63 -310 -48 -531 6 -81 9 -92 25 -92 11 0 19 6 19 14 0 8 6 17
13 19 6 3 7 6 1 6 -12 1 -2 116 22 236 16 79 17 81 87 152 39 39 76 69 82 66
5 -4 7 -3 3 2 -8 9 31 42 44 37 5 -1 7 2 5 7 -2 8 85 93 90 88 1 -1 4 -31 6
-67 3 -36 15 -94 26 -129 11 -36 17 -69 14 -74 -3 -6 -2 -7 4 -4 7 5 42 -54
49 -83 0 -3 3 -12 6 -20 3 -8 10 -42 16 -75 11 -63 51 -180 59 -172 2 3 0 22
-6 44 -22 78 -4 187 42 263 12 19 22 39 23 45 5 24 47 107 63 123 9 9 34 38
55 64 21 26 42 46 46 43 4 -3 14 3 21 13 13 16 13 16 -5 2 -17 -13 -19 -13
-14 0 2 8 14 20 26 26 12 6 20 13 17 16 -3 2 9 17 25 33 17 16 30 26 30 22 0
-4 16 11 37 33 20 23 45 46 56 52 19 10 20 8 14 -23 -3 -19 -9 -45 -12 -59 -3
-14 6 4 20 40 24 60 25 69 15 121 l-12 56 -90 7 -90 6 -88 -44 c-66 -33 -99
-44 -139 -44 -35 -1 -50 2 -45 9 3 6 18 9 31 6 l26 -5 -7 97 c-4 53 -18 143
-31 201 -44 194 -58 306 -53 438 3 67 4 122 2 122 -1 0 -9 -19 -18 -42z m-81
-799 c0 -28 -23 -32 -39 -6 -8 14 -8 20 4 27 22 14 35 6 35 -21z m-55 -44 c10
-13 9 -15 -9 -15 -12 0 -21 6 -21 15 0 8 4 15 9 15 5 0 14 -7 21 -15z m503
-108 c-16 -17 -39 -42 -49 -54 l-20 -22 -44 39 -45 39 35 1 c19 1 60 9 90 19
30 10 57 16 59 14 3 -2 -9 -18 -26 -36z m-373 -22 c0 -20 -5 -25 -26 -25 -14
0 -34 -5 -45 -10 -15 -9 -19 -7 -19 5 0 35 20 55 55 55 31 0 35 -3 35 -25z
m130 -46 c-33 -38 -67 -81 -77 -95 l-17 -27 -8 29 c-5 16 -6 58 -3 94 l7 66
79 1 79 2 -60 -70z m142 -2 c19 -18 19 -19 -19 -65 -59 -73 -75 -92 -121 -144
l-43 -49 -13 33 c-30 73 -29 101 6 147 l32 44 39 -42 c21 -23 42 -40 45 -36 3
3 -11 22 -31 43 -20 21 -37 42 -37 47 0 5 17 26 37 47 l37 38 25 -23 c13 -12
33 -30 43 -40z m-272 -9 c0 -13 3 -39 6 -58 5 -33 3 -38 -39 -67 l-45 -33 -10
72 c-6 39 -9 75 -6 80 5 8 58 25 82 27 6 1 12 -9 12 -21z m12 -123 c3 -3 -1
-38 -8 -78 -8 -40 -14 -85 -14 -102 -1 -38 -11 -22 -39 63 l-21 62 32 30 c34
30 41 34 50 25z m33 -179 l-30 -38 -3 46 c-2 26 2 73 9 104 l12 57 21 -65 21
-65 -30 -39z"/>
<path d="M2290 1670 c-9 -18 -8 -20 15 -20 18 0 25 5 25 20 0 11 -7 20 -15 20
-8 0 -19 -9 -25 -20z"/>
<path d="M2480 1665 c0 -14 4 -25 10 -25 5 0 48 -29 96 -65 69 -53 89 -63 100
-54 13 10 12 15 -6 34 -29 31 -175 135 -189 135 -6 0 -11 -11 -11 -25z"/>
<path d="M3705 1642 c-112 -20 -304 -101 -473 -200 l-114 -67 40 -3 c32 -2 53
5 106 37 81 50 162 91 245 125 112 45 109 44 -147 -100 -121 -67 -123 -69 -92
-77 23 -6 37 -4 49 6 52 44 384 208 459 227 l64 16 -59 20 c-32 11 -67 18 -78
16z"/>
<path d="M1120 1613 c0 -44 14 -123 20 -123 12 0 110 79 110 89 0 7 -106 51
-124 51 -3 0 -6 -8 -6 -17z"/>
<path d="M50 1581 c0 -5 -12 -12 -27 -14 -26 -4 -26 -4 5 -6 22 -1 32 3 32 14
0 8 -2 15 -5 15 -3 0 -5 -4 -5 -9z"/>
<path d="M4100 1557 c0 -2 15 -16 33 -33 l32 -29 -29 33 c-28 30 -36 37 -36
29z"/>
<path d="M4295 1509 c-49 -16 -95 -27 -101 -25 -5 2 -27 -6 -48 -19 l-37 -22
-76 33 c-101 43 -200 60 -267 45 -27 -6 -99 -40 -160 -75 -61 -36 -132 -75
-158 -87 -27 -13 -48 -26 -48 -30 0 -8 114 -36 186 -46 39 -5 49 -2 72 19 82
76 172 109 284 107 43 -1 75 -6 72 -10 -3 -5 19 1 48 14 54 24 168 44 168 29
0 -4 -6 -14 -12 -21 -19 -19 128 -9 210 14 80 23 75 30 -6 10 -65 -17 -157
-17 -157 0 0 5 31 29 70 52 38 24 65 43 60 42 -6 0 -50 -14 -100 -30z m-705
-154 c0 -7 -30 -13 -34 -7 -3 4 4 9 15 9 10 1 19 0 19 -2z m-19 -23 c8 2 13
-3 12 -9 -2 -7 3 -13 11 -13 8 0 17 -4 20 -9 6 -8 -43 -6 -93 5 -22 5 -23 6
-6 24 13 14 22 17 30 10 7 -6 19 -9 26 -8z"/>
<path d="M996 1500 c-21 -16 -54 -34 -72 -40 -33 -11 -33 -12 -18 -35 13 -20
20 -22 40 -14 42 15 92 11 97 -8 4 -17 5 -17 6 0 0 10 -6 20 -15 24 -11 4 -12
8 -4 13 6 4 10 25 8 48 l-3 41 -39 -29z"/>
<path d="M1 1419 c-1 -93 0 -101 16 -94 97 41 262 60 348 40 46 -10 -190 104
-272 131 -39 13 -76 24 -81 24 -5 0 -10 -45 -11 -101z m45 68 c8 3 14 3 14 0
0 -14 -30 -14 -41 1 -11 14 -11 15 0 5 7 -6 20 -9 27 -6z m161 -54 c125 -50
128 -53 46 -53 -75 0 -94 10 -71 37 7 9 8 14 2 10 -7 -4 -17 0 -24 8 -7 8 -16
13 -20 10 -5 -3 -11 -1 -15 5 -10 16 10 12 82 -17z"/>
<path d="M1290 1501 c-19 -10 -61 -27 -93 -37 -102 -32 -58 -44 119 -34 28 1
61 8 73 15 23 12 23 12 -17 43 -22 18 -41 32 -43 32 -2 -1 -20 -9 -39 -19z"/>
<path d="M1416 1434 c-4 -9 -13 -14 -21 -10 -8 3 -14 0 -12 -6 1 -9 -161 -118
-196 -130 -4 -2 -1 -21 6 -43 13 -36 17 -40 53 -43 85 -7 161 34 215 118 18
27 34 48 36 46 3 -2 -1 -23 -7 -46 -6 -23 -9 -44 -7 -47 3 -2 21 10 41 28 42
36 42 35 -43 102 -48 38 -60 44 -65 31z"/>
<path d="M4146 1372 c-3 -5 16 -24 42 -42 45 -32 45 -25 -2 28 -21 23 -32 27
-40 14z"/>
<path d="M4229 1338 c14 -20 33 -37 42 -38 8 0 19 -4 25 -8 5 -5 32 -17 59
-27 28 -10 52 -22 55 -26 3 -5 19 -4 35 0 26 8 27 9 7 10 -12 1 -33 7 -45 15
-12 8 -33 17 -47 19 -14 2 -34 8 -44 12 -18 8 -18 9 4 17 13 5 49 6 79 3 31
-3 76 -2 101 3 39 8 32 9 -56 10 -78 0 -116 6 -170 24 l-70 23 25 -37z"/>
<path d="M4558 1333 c7 -3 16 -2 19 1 4 3 -2 6 -13 5 -11 0 -14 -3 -6 -6z"/>
<path d="M0 1261 c0 -12 88 -92 143 -130 54 -37 157 -85 165 -76 3 3 0 5 -7 5
-13 0 -53 79 -45 91 2 4 -16 12 -41 18 -25 6 -83 31 -130 56 -47 24 -85 40
-85 36z"/>
<path d="M3200 1224 c-30 -19 -59 -35 -63 -37 -5 -1 -3 -17 5 -35 l13 -32 117
65 c64 36 122 65 128 65 7 0 3 -14 -9 -32 -12 -18 -49 -81 -82 -140 -34 -59
-72 -114 -85 -123 -83 -54 -244 -221 -308 -320 -76 -116 -122 -231 -113 -278
4 -19 4 -19 6 4 5 108 139 325 290 474 60 58 67 52 12 -11 -86 -98 -159 -298
-148 -404 3 -27 -2 -67 -13 -105 -27 -87 -40 -169 -40 -247 l0 -68 84 0 84 0
-24 76 c-38 118 -50 254 -36 385 20 176 60 253 222 424 52 55 75 82 52 60 -23
-21 -42 -35 -42 -30 0 22 41 75 69 90 37 19 63 20 39 1 -10 -7 -18 -16 -18
-19 0 -10 144 103 154 121 5 9 13 21 18 27 4 5 23 31 42 57 l35 47 -55 7 c-30
3 -58 4 -61 0 -4 -3 7 -6 23 -6 47 0 58 -13 36 -40 -18 -22 -21 -22 -71 -10
-47 11 -51 14 -38 29 34 40 32 41 -70 40 -94 -1 -101 -2 -153 -35z m278 -69
c10 -4 10 -10 2 -25 -6 -11 -15 -20 -20 -20 -5 0 -32 -13 -60 -30 -86 -51 -95
-39 -37 51 32 49 35 50 115 24z m-43 -85 c-10 -11 -25 -20 -34 -19 -11 0 -9 3
5 9 12 5 25 13 29 19 3 6 9 11 12 11 3 0 -2 -9 -12 -20z"/>
<path d="M4488 1253 c7 -3 16 -2 19 1 4 3 -2 6 -13 5 -11 0 -14 -3 -6 -6z"/>
<path d="M4338 1223 l-27 -4 27 -39 c31 -44 31 -45 57 -27 17 13 17 15 -1 45
-10 18 -21 31 -24 31 -3 -1 -17 -4 -32 -6z"/>
<path d="M3613 1190 c-34 -20 -47 -38 -15 -21 23 13 58 40 52 41 -3 0 -20 -9
-37 -20z"/>
<path d="M278 1143 c7 -3 16 -2 19 1 4 3 -2 6 -13 5 -11 0 -14 -3 -6 -6z"/>
<path d="M2150 1127 c0 -2 15 -16 33 -33 l32 -29 -29 33 c-28 30 -36 37 -36
29z"/>
<path d="M888 1113 c7 -3 16 -2 19 1 4 3 -2 6 -13 5 -11 0 -14 -3 -6 -6z"/>
<path d="M768 1083 c7 -3 16 -2 19 1 4 3 -2 6 -13 5 -11 0 -14 -3 -6 -6z"/>
<path d="M2230 1056 c0 -2 8 -10 18 -17 15 -13 16 -12 3 4 -13 16 -21 21 -21
13z"/>
<path d="M3105 1030 c-16 -4 -114 -23 -217 -40 -167 -29 -187 -35 -192 -54 -8
-31 -7 -73 2 -60 9 14 55 27 197 54 107 21 272 63 281 73 2 2 2 12 -2 21 -7
17 -22 19 -69 6z"/>
<path d="M2275 1020 c3 -5 8 -10 11 -10 2 0 4 5 4 10 0 6 -5 10 -11 10 -5 0
-7 -4 -4 -10z"/>
<path d="M4482 1017 l-23 -13 38 -50 c20 -27 73 -94 118 -149 44 -55 88 -111
98 -125 17 -25 -20 58 -72 160 -27 53 -121 188 -131 189 -3 0 -15 -5 -28 -12z"/>
<path d="M2291 974 c0 -11 3 -14 6 -6 3 7 2 16 -1 19 -3 4 -6 -2 -5 -13z"/>
<path d="M2559 933 c-30 -5 -93 -76 -86 -96 4 -9 6 -9 6 1 1 6 9 12 19 12 15
0 25 -25 55 -149 20 -83 38 -162 38 -178 l1 -28 7 30 c4 17 3 43 -2 59 -6 17
-8 98 -4 192 3 90 3 163 -1 163 -4 -1 -19 -4 -33 -6z m0 -130 c-1 -59 -7 -52
-22 25 -5 24 -3 32 8 32 12 0 15 -13 14 -57z"/>
<path d="M1939 883 l-24 -28 28 24 c15 14 27 26 27 28 0 8 -8 1 -31 -24z"/>
<path d="M2683 820 c0 -25 2 -35 4 -22 2 12 2 32 0 45 -2 12 -4 2 -4 -23z"/>
<path d="M2481 784 c1 -21 5 -52 9 -69 5 -19 6 -6 3 35 -6 73 -14 94 -12 34z"/>
<path d="M2673 685 c0 -38 2 -53 4 -32 2 20 2 52 0 70 -2 17 -4 1 -4 -38z"/>
<path d="M3495 731 c-11 -5 -23 -7 -27 -5 -13 8 -177 -297 -178 -330 0 -5 18
17 41 50 22 32 62 82 87 109 l47 50 -58 -55 -59 -55 17 40 c9 22 32 68 51 103
29 51 44 67 77 82 41 18 42 27 2 11z"/>
<path d="M2347 645 c-19 -40 -21 -49 -9 -41 5 3 21 -25 36 -62 15 -37 53 -114
84 -172 31 -58 55 -108 54 -113 -1 -4 2 -7 7 -7 14 0 52 -70 45 -82 -4 -7 -2
-8 4 -4 11 7 38 -32 34 -47 -1 -5 1 -6 5 -4 5 3 29 -22 56 -55 55 -70 59 -67
14 10 -18 31 -46 87 -62 125 -16 37 -33 67 -36 67 -18 0 -144 241 -179 340
-13 36 -26 68 -30 73 -3 4 -14 -9 -23 -28z"/>
<path d="M2270 656 c0 -10 -5 -14 -12 -10 -7 4 -8 3 -4 -5 9 -13 -14 -152 -23
-146 -7 4 -7 -7 -10 -230 0 -82 2 -176 5 -207 6 -55 8 -58 33 -58 27 0 27 1
25 62 -1 35 -9 103 -18 152 -20 111 -21 270 -1 372 8 43 13 80 10 82 -3 3 -5
-2 -5 -12z"/>
<path d="M2502 630 c0 -14 2 -19 5 -12 2 6 2 18 0 25 -3 6 -5 1 -5 -13z"/>
<path d="M2683 565 c0 -27 2 -38 4 -22 2 15 2 37 0 50 -2 12 -4 0 -4 -28z"/>
<path d="M2316 574 c-4 -9 -4 -19 -1 -22 2 -3 7 3 11 12 4 9 4 19 1 22 -2 3
-7 -3 -11 -12z"/>
<path d="M2220 560 c0 -5 5 -10 10 -10 6 0 10 5 10 10 0 6 -4 10 -10 10 -5 0
-10 -4 -10 -10z"/>
<path d="M2300 514 c-6 -14 -10 -65 -10 -114 0 -142 44 -258 137 -364 30 -33
60 -53 34 -23 -6 8 -7 17 -3 21 4 4 1 6 -7 4 -33 -7 -123 148 -137 237 -11 66
-16 215 -8 215 5 0 9 11 9 25 0 32 -3 31 -15 -1z"/>
<path d="M2521 514 c0 -11 3 -14 6 -6 3 7 2 16 -1 19 -3 4 -6 -2 -5 -13z"/>
<path d="M2692 475 c0 -16 2 -22 5 -12 2 9 2 23 0 30 -3 6 -5 -1 -5 -18z"/>
<path d="M2530 477 c0 -7 7 -22 15 -33 13 -17 14 -16 4 14 -11 33 -19 41 -19
19z"/>
<path d="M2602 460 c0 -14 2 -19 5 -12 2 6 2 18 0 25 -3 6 -5 1 -5 -13z"/>
<path d="M2612 400 c0 -14 2 -19 5 -12 2 6 2 18 0 25 -3 6 -5 1 -5 -13z"/>
<path d="M2701 410 c0 -8 4 -22 9 -30 12 -18 12 -2 0 25 -6 13 -9 15 -9 5z"/>
<path d="M2576 367 c3 -10 9 -15 12 -12 3 3 0 11 -7 18 -10 9 -11 8 -5 -6z"/>
<path d="M2626 327 c3 -26 2 -37 -5 -32 -6 3 -11 4 -11 1 0 -9 42 -77 46 -73
6 6 -8 47 -16 47 -5 0 -6 8 -4 18 2 9 0 31 -6 47 -9 28 -10 28 -4 -8z"/>
<path d="M2714 347 c4 -11 9 -30 12 -43 3 -13 10 -24 15 -24 5 0 7 -6 5 -12
-1 -7 -1 -9 2 -5 2 5 13 0 25 -10 23 -21 15 -1 -13 32 -10 11 -25 34 -34 50
-10 17 -15 22 -12 12z"/>
<path d="M1211 246 c-61 -95 -121 -210 -121 -233 0 -9 17 -13 50 -13 43 0 50
3 54 23 27 127 39 174 60 237 14 41 24 76 22 77 -2 2 -31 -39 -65 -91z"/>
<path d="M2590 331 c0 -5 5 -13 10 -16 6 -3 10 -2 10 4 0 5 -4 13 -10 16 -5 3
-10 2 -10 -4z"/>
<path d="M3241 234 c0 -11 3 -14 6 -6 3 7 2 16 -1 19 -3 4 -6 -2 -5 -13z"/>
<path d="M3226 168 c-11 -63 -17 -174 -8 -153 l9 20 5 -20 c3 -11 6 26 7 83 0
56 -1 102 -3 102 -2 0 -6 -15 -10 -32z"/>
<path d="M626 127 c3 -10 9 -15 12 -12 3 3 0 11 -7 18 -10 9 -11 8 -5 -6z"/>
<path d="M2291 80 c0 -8 8 -31 19 -50 24 -45 24 -28 0 25 -10 22 -19 33 -19
25z"/>
<path d="M2820 46 c0 -3 14 -14 30 -26 17 -12 30 -17 30 -11 0 6 -13 17 -30
26 -16 9 -30 13 -30 11z"/>
</g>
</svg>
